<svg xmlns="http://www.w3.org/2000/svg" version="1.1" xmlns:xlink="http://www.w3.org/1999/xlink" xmlns:svgjs="http://svgjs.dev/svgjs" width="1000" height="1000" viewBox="0 0 1000 1000"><rect width="1000" height="1000" fill="#ffffff"></rect><g transform="matrix(0.7,0,0,0.7,150.0000000000001,106.25)"><svg viewBox="0 0 320 360" data-background-color="#ffffff" preserveAspectRatio="xMidYMid meet" height="1125" width="1000" xmlns="http://www.w3.org/2000/svg" xmlns:xlink="http://www.w3.org/1999/xlink"><g id="tight-bounds" transform="matrix(1,0,0,1,0,0)"><svg viewBox="0 0 320 360" height="360" width="320"><g><svg></svg></g><g><svg viewBox="0 0 320 360" height="360" width="320"><g><path xmlns="http://www.w3.org/2000/svg" d="M20.961 227.22l3.726 4.658-1.863-6.056c-0.466-2.795-3.726 0.466-1.863 1.398M25.153 224.425c1.397 2.329 2.795 4.658 2.795 6.987 0 3.261 2.795 4.658 5.123 5.589-3.261-3.726-5.124-13.974-7.918-12.576M204.017 26.929c7.918 0 15.371-0.932 23.756 0.931 20.495 5.124 37.729 15.371 49.374 29.811l32.606 52.169c1.397 13.042 4.192 27.482 3.726 43.319 3.261 0 2.795-4.658 6.521-5.59-3.726 9.316-5.59 20.961-6.521 34.469-2.329-7.453 0-18.632 0.466-24.687-3.261 5.124-5.124 1.397-5.124-0.932 0.466-3.726-1.397-3.261-2.795-4.658-5.124-4.658-8.384-9.782-12.11-17.7 2.329-6.055 2.795-14.905-4.658-19.563-2.329-1.397-5.124-3.726-6.521-7.453-1.863-5.124-5.124-11.179-4.193-19.097 0.466-2.329-6.987 5.124-11.179 1.863-18.166-12.576-36.332-27.016-58.224-39.127-11.645 0-20.029-4.192-24.221-9.316-3.726-4.658-0.932-10.713 4.658-11.179 3.261 0 6.987-0.932 9.782 0.932 0.466-1.863 2.329-4.192 4.657-4.192M157.904 16.215l0.932 0.466c4.658 0.932 6.987 7.453 12.11 5.124 0 3.261 0.466 6.521-0.466 8.85-1.397 3.726-5.59 3.726-8.85 3.726-31.208-1.863-49.374 11.179-68.471 22.358-5.124 3.261-10.713 5.59-14.906 9.782-20.029 18.632-41.921 35.866-47.045 70.335l-4.192 38.195c-0.466 4.192-5.124 8.384-4.192 13.508l3.26 22.824c-3.261-3.261-5.124 0.932-4.192 2.795 0.466 1.397 2.329 6.055 5.124 1.863 3.726 6.987 7.453 20.495 12.576 26.55 15.837 18.632 36.332 35.4 53.101 52.169 4.192-0.932 7.453-0.932 8.384-3.727 1.397 2.795-1.397 5.59-3.726 6.056 7.453 4.658 15.837 8.85 27.016 9.781 14.44 0.932 27.948 3.261 40.524 6.522 6.521-1.863 13.042-2.795 20.029-3.261 2.329 0 3.726-3.726 6.521-4.658l0.466-4.658c2.795 4.192 2.329-1.397 0.466-4.192 3.261 2.795 4.192 5.124 5.589 6.987 0-1.397 3.726-6.521 3.727-0.466l0.931-6.055c1.397-0.932 1.863 5.124 3.261 0.931 1.397-4.192 4.192-0.932 6.987-2.329-0.932 1.863-0.466 5.59 2.794 3.261l3.727-3.261c2.329 5.59 6.055 3.261 7.918 2.329 20.495-13.042 40.99-28.413 60.553-43.784l-0.466 6.055 2.329-7.453c2.329 2.329 4.192 0.466 5.124-0.931 2.795-4.658 6.521-9.316 12.577-13.508-7.453 20.029-16.303 35.866-27.482 48.908l-4.658 5.59c0 3.261-0.932 7.453-4.658 7.918-1.863 0.466-5.59-0.932-8.384 1.863-1.397 1.863 3.261 5.59-0.466 2.795-3.261-2.329-6.521 0-10.248 0.932-2.795 0.932 1.863 3.726 2.795 5.589 0.932 1.863 1.863 3.726 1.398 6.056l-5.124-5.59c-6.055 3.261-9.782 9.316-14.906 13.974-2.329 1.863-1.397 5.124-1.397 7.918-3.261 0-6.987-0.932-8.85 0.932-1.397 1.863-0.932 4.658-0.932 7.453-4.658-0.466-5.124-7.453-9.315-6.056-4.192 0.932-8.85 1.397-12.577 3.727 2.795 5.59-4.658 2.329-3.726 3.26-6.987-4.192-13.042-7.453-20.495-4.658-15.837-5.124-35.4-2.795-49.84-0.931 0-2.329 0.466-4.658-0.466-5.124-0.932 2.329-3.726 1.397-3.26 1.397-8.85-6.055-17.7-9.782-27.016-14.905-8.384 0.932-16.303-3.261-18.632-5.59-6.521-6.055-13.974-2.795-20.029-4.192-13.042-3.261-17.7-16.769-19.098-26.084-0.932-4.658-4.658-6.521-6.055-6.056-6.055-19.563-15.371-37.263-22.824-55.429-1.863-4.658-1.397-9.316-1.397-14.44 2.329 0.932 4.658 0.466 4.192-2.794-2.329-15.371-7.918-27.016-13.974-38.195 3.261-15.837 3.726-34.469 11.179-48.443 6.521-12.576 18.632-19.098 27.016-29.811 2.795-3.726 2.795-8.85 5.59-12.11 9.316-9.316 18.632-19.098 28.879-27.482 4.658-3.726 10.247 0 17.234-1.397 2.329-8.384 11.645-15.837 20.495-13.508 3.726 0.932 11.179-8.85 13.508-9.782 3.726-1.397 1.863 3.726 1.863 6.987 8.85-6.987 20.961-10.713 32.14-14.906" fill="#1e55b3" fill-rule="nonzero" stroke="none" stroke-width="1" stroke-linecap="butt" stroke-linejoin="miter" stroke-miterlimit="10" stroke-dasharray="" stroke-dashoffset="0" font-family="none" font-weight="none" font-size="none" text-anchor="none" style="mix-blend-mode: normal" data-fill-palette-color="tertiary"></path></g><g transform="matrix(1,0,0,1,64,141.67787132059237)"><svg viewBox="0 0 192 76.64425735881522" height="76.64425735881522" width="192"><g><svg viewBox="0 0 192 76.64425735881522" height="76.64425735881522" width="192"><g><svg viewBox="0 0 192 76.64425735881522" height="76.64425735881522" width="192"><g><svg viewBox="0 0 192 76.64425735881522" height="76.64425735881522" width="192"><g id="textblocktransform"><svg viewBox="0 0 192 76.64425735881522" height="76.64425735881522" width="192" id="textblock"><g><svg viewBox="0 0 192 76.64425735881522" height="76.64425735881522" width="192"><g transform="matrix(1,0,0,1,0,0)"><svg width="192" viewBox="0.34375 -40.150001525878906 101.69625091552734 40.60000228881836" height="76.64425735881522" data-palette-color="#1e55b3"><path d="M28.15-1.2L17.15-34.8 6.2-1.2 6.2-1.25Q5.9-0.5 5.38-0.03 4.85 0.45 4.1 0.45L4.1 0.45Q3.7 0.45 3.33 0.38 2.95 0.3 2.55 0.2L2.55 0.2 2.6 0.2Q-0.25-0.7 0.5-3L0.5-3 11.9-37.65Q12.15-38.45 12.78-39 13.4-39.55 14.25-39.65L14.25-39.65Q15.1-39.8 15.9-39.88 16.7-39.95 17.15-39.95L17.15-39.95Q17.6-39.95 18.4-39.88 19.2-39.8 20.05-39.7L20.05-39.7Q20.75-39.6 21.43-38.95 22.1-38.3 22.45-37.65L22.45-37.65Q25.25-29.05 28.13-20.33 31-11.6 33.8-3L33.8-3Q34.5-0.7 31.7 0.2L31.7 0.2Q31.3 0.3 30.98 0.38 30.65 0.45 30.25 0.45L30.25 0.45Q29.55 0.45 28.98-0.03 28.4-0.5 28.15-1.25L28.15-1.25 28.15-1.2ZM20.9-12L20.9-12Q20.9-10.4 19.78-9.28 18.65-8.15 17.05-8.15L17.05-8.15Q15.45-8.15 14.35-9.28 13.25-10.4 13.25-12L13.25-12Q13.25-13.6 14.35-14.73 15.45-15.85 17.05-15.85L17.05-15.85Q18.65-15.85 19.78-14.73 20.9-13.6 20.9-12ZM43.55-37.8L43.55-1.95Q43.55 0.4 40.8 0.4L40.8 0.4Q38 0.4 38-1.95L38-1.95 38-37.8Q38-40.15 40.8-40.15L40.8-40.15Q43.55-40.15 43.55-37.8L43.55-37.8ZM55.95-22.15L55.95-8Q55.95-6.8 56.72-5.75 57.5-4.7 59.35-4.7L59.35-4.7 65.6-4.7Q67.45-4.7 68.22-5.63 69-6.55 69-7.75L69-7.75 69-8.3Q69-10.65 71.75-10.65L71.75-10.65Q74.5-10.65 74.5-8.3L74.5-8.3 74.5-7.7Q74.5-5.6 73.82-4.25 73.15-2.9 71.8-1.9L71.8-1.9Q69.15 0 66.5 0L66.5 0 58.1 0Q55.45 0 52.95-1.9L52.95-1.9Q51.75-2.9 51.1-4.42 50.45-5.95 50.45-7.95L50.45-7.95 50.45-22.2Q50.45-26.25 52.95-28.2L52.95-28.2Q54.2-29.1 55.52-29.63 56.85-30.15 58.1-30.15L58.1-30.15 66.5-30.15Q67.7-30.15 69.15-29.68 70.6-29.2 71.85-28.4L71.85-28.4Q73.05-27.55 73.77-26.05 74.5-24.55 74.5-22.5L74.5-22.5 74.5-15.75Q74.5-14.6 73.82-13.7 73.15-12.8 71.35-12.8L71.35-12.8 60.55-12.8Q58.75-12.8 58.65-15.15L58.65-15.15Q58.65-17.5 60.55-17.5L60.55-17.5 69.05-17.5 69-22.15Q69-23.4 68.22-24.43 67.45-25.45 65.6-25.45L65.6-25.45 59.35-25.45Q57.5-25.45 56.72-24.43 55.95-23.4 55.95-22.15L55.95-22.15ZM101.09-26.45L93.29-15.3 101.69-3.45Q102.04-2.95 102.04-2.35L102.04-2.35Q102.04-1.3 100.54-0.25L100.54-0.25Q99.59 0.4 98.74 0.4L98.74 0.4Q98.24 0.4 97.72 0.05 97.19-0.3 96.74-0.85L96.74-0.85 89.89-10.5Q89.14-9.45 88.27-8.2 87.39-6.95 86.49-5.68 85.59-4.4 84.72-3.15 83.84-1.9 83.09-0.85L83.09-0.85Q82.14 0.4 81.04 0.4L81.04 0.4Q80.09 0.4 79.24-0.25L79.24-0.25Q78.54-0.75 78.17-1.23 77.79-1.7 77.79-2.3L77.79-2.3Q77.79-2.9 78.19-3.45L78.19-3.45 86.49-15.3Q84.64-17.95 82.59-20.85 80.54-23.75 78.69-26.45L78.69-26.45Q78.49-26.8 78.32-27.23 78.14-27.65 78.14-27.9L78.14-27.9Q78.14-28.95 79.54-29.85L79.54-29.85 79.49-29.85Q79.99-30.1 80.42-30.28 80.84-30.45 81.24-30.45L81.24-30.45Q82.59-30.45 83.59-29L83.59-29 89.89-20.05 96.19-29Q97.24-30.45 98.54-30.45L98.54-30.45Q98.99-30.45 99.39-30.28 99.79-30.1 100.29-29.85L100.29-29.85 100.24-29.85Q101.69-28.95 101.69-27.9L101.69-27.9Q101.69-27.3 101.09-26.45L101.09-26.45Z" opacity="1" transform="matrix(1,0,0,1,0,0)" fill="#1e55b3" class="undefined-text-0" data-fill-palette-color="primary" id="text-0"></path></svg></g></svg></g></svg></g></svg></g><g></g></svg></g></svg></g></svg></g></svg></g><defs></defs></svg><rect width="320" height="360" fill="none" stroke="none" visibility="hidden"></rect></g></svg></g></svg>